<svg id="Layer_1" data-name="Layer 1" xmlns="http://www.w3.org/2000/svg" width="9.4in" height="2.3in" viewBox="0 0 678.2 166.1">
  <title>naeh-logo-white</title>
  <path d="M89.8,71.1L75.1,75.7V33.7l14.6-7.7V71.1Zm0,46.5L75.1,114V80.7L89.8,76v41.5ZM106.6,17V0H0V165.2H51.1l-30-11v-92L60,41.7V165.2h46.7V121.6l-12.1-2.9V74.5l12.1-3.9v-5L94.5,69.6V23.4Z" style="fill: #fff"/>
  <path d="M160.4,103.8h-1.1L135.5,77.5v17c0,6.3.5,7.6,5.4,7.6v1.2H128.8v-1.2c2.8,0,4.9,0,4.9-5.8V78c0-3.9-1.7-5.3-5.6-5.3V71.5h8c1.9,2.8,6.1,7,11.3,12.7s8.2,8.8,11.3,12.2V78.2c0-4.2-1-5.5-5.5-5.5V71.5h11.7v1.2c-2.8,0-4.3.2-4.3,4.7v26.4Z" style="fill: #fff"/>
  <path d="M179.3,93.2c-2.3.9-8.3,2-8.3,5.4a3.3,3.3,0,0,0,3.2,3.3c2.2,0,3.5-1.3,5-2.7v-6Zm7.4,8.4c-1.3,1.2-2.7,2.5-4.5,2.5s-2.7-1.7-2.8-3.4c-2.1,2-4.2,3.4-7,3.4s-4.9-2-4.9-4.4,2.1-4.3,11.9-7.7v-3c0-2.6-1.5-3.9-4.4-3.9a3.2,3.2,0,0,0-3.5,3.2c0,1.3-1.5,1.9-2.6,1.9a0.8,0.8,0,0,1-.8-0.9c0-2.4,2.1-3.6,5.3-5.2,1.6-.8,2.4-1.5,4.1-1.5s5.6,1.3,5.6,3.8V99c0,1.9.6,2.6,1.6,2.6a2.3,2.3,0,0,0,1.7-.8Z" style="fill: #fff"/>
  <path d="M195.8,97.7c0,3,1.6,3.8,2.9,3.8a4.5,4.5,0,0,0,3.2-1.3l0.7,0.7c-1.6,1.6-3.6,3.1-6.1,3.1s-4.3-1.6-4.3-4.2V85.6h-3V84.9a19.6,19.6,0,0,0,6.1-6.4h0.6v4.7h6.8v2.5h-6.8V97.7Z" style="fill: #fff"/>
  <path d="M209.8,75.4a2.2,2.2,0,0,1,0-4.5,2.2,2.2,0,0,1,2.2,2.2,2.3,2.3,0,0,1-2.2,2.3M205,102.2h0.9c1.3,0,2.2,0,2.2-1.5V88.3c0-2-.7-2.3-2.4-3.2V84.3l4.9-1.6,0.8-.2c0.2,0,.3.3,0.3,0.6v17.5c0,1.5,1,1.5,2.3,1.5h0.8v1.2H205v-1.2Z" style="fill: #fff"/>
  <path d="M228.2,102.9c4.6,0,6.3-5.3,6.3-9.2s-2-10-6.9-10-6.3,5.3-6.3,9.2,2,10,6.8,10m-0.6-20.4c6.4,0,11.1,4.2,11.1,10.7A10.7,10.7,0,0,1,228.2,104c-6.1,0-11.1-4.2-11.1-10.7s4.3-10.9,10.5-10.9" style="fill: #fff"/>
  <path d="M244.5,88.5c0-1.7-.5-2.1-2.7-3V84.7a57.9,57.9,0,0,0,6-2.2c0.1,0,.3.1,0.3,0.5v3c2.6-1.9,4.8-3.4,7.9-3.4s5.3,2.8,5.3,6.4v11.8c0,1.5,1,1.5,2.3,1.5h0.8v1.2h-9.8v-1.2h0.8c1.3,0,2.2,0,2.2-1.5V88.8c0-2.6-1.6-3.9-4.2-3.9s-3.8,1.2-5.3,2.2v13.5c0,1.5,1,1.5,2.3,1.5h0.8v1.2h-9.8v-1.2h0.8c1.3,0,2.2,0,2.2-1.5V88.5Z" style="fill: #fff"/>
  <path d="M279.5,93.2c-2.3.9-8.3,2-8.3,5.4a3.3,3.3,0,0,0,3.2,3.3c2.2,0,3.5-1.3,5-2.7v-6Zm7.4,8.4c-1.3,1.2-2.7,2.5-4.5,2.5s-2.7-1.7-2.8-3.4c-2.1,2-4.2,3.4-7,3.4s-4.9-2-4.9-4.4,2.1-4.3,11.9-7.7v-3c0-2.6-1.5-3.9-4.4-3.9a3.2,3.2,0,0,0-3.5,3.2c0,1.3-1.5,1.9-2.6,1.9a0.8,0.8,0,0,1-.8-0.9c0-2.4,2.1-3.6,5.3-5.2,1.6-.8,2.4-1.5,4.1-1.5s5.6,1.3,5.6,3.8V99c0,1.9.6,2.6,1.6,2.6a2.3,2.3,0,0,0,1.7-.8Z" style="fill: #fff"/>
  <path d="M290,102.2h0.9c1.3,0,2.2,0,2.2-1.5V75.2c0-3-.7-3.1-2.4-3.6V70.9a29,29,0,0,0,4.7-2l1-.5c0.3,0,.4.3,0.4,0.6v31.6c0,1.5,1,1.5,2.3,1.5h0.8v1.2H290v-1.2Z" style="fill: #fff"/>
  <path d="M324.8,89.5h9.4l-4.9-13.4h-0.1Zm15.5,4.8c0.6,1.8,1.9,5.7,2.6,6.7a4.3,4.3,0,0,0,3.5,1.2v1.2H334.5v-1.2h0.8c1.1,0,2.5-.2,2.5-1.5a11.4,11.4,0,0,0-.7-2.7l-2.3-6.6H324.2l-1,3.2a22.2,22.2,0,0,0-1.2,5.4c0,2.2,1.5,2.1,3.1,2.2h1.1v1.2H315.2v-1.2c2.8-.3,3.3-0.7,4.4-3.2s1.3-3.4,1.9-5.1l5.8-16.3a14.1,14.1,0,0,0,1-4.1,5.1,5.1,0,0,0-.1-1.2,5.7,5.7,0,0,0,2.7-2h0.8Z" style="fill: #fff"/>
  <path d="M348.8,102.2h0.9c1.3,0,2.2,0,2.2-1.5V75.2c0-3-.7-3.1-2.4-3.6V70.9a29,29,0,0,0,4.7-2l1-.5c0.3,0,.4.3,0.4,0.6v31.6c0,1.5,1,1.5,2.3,1.5h0.8v1.2h-9.8v-1.2Z" style="fill: #fff"/>
  <path d="M361.5,102.2h0.9c1.3,0,2.2,0,2.2-1.5V75.2c0-3-.7-3.1-2.4-3.6V70.9a28.8,28.8,0,0,0,4.7-2l1-.5c0.3,0,.4.3,0.4,0.6v31.6c0,1.5,1,1.5,2.3,1.5h0.8v1.2h-9.8v-1.2Z" style="fill: #fff"/>
  <path d="M379.1,75.4a2.2,2.2,0,0,1,0-4.5,2.2,2.2,0,0,1,2.2,2.2,2.3,2.3,0,0,1-2.2,2.3m-4.9,26.7H375c1.3,0,2.2,0,2.2-1.5V88.3c0-2-.7-2.3-2.4-3.2V84.3l4.9-1.6,0.8-.2c0.2,0,.3.3,0.3,0.6v17.5c0,1.5,1,1.5,2.3,1.5H384v1.2h-9.8v-1.2Z" style="fill: #fff"/>
  <path d="M399.3,93.2c-2.3.9-8.3,2-8.3,5.4a3.3,3.3,0,0,0,3.2,3.3c2.1,0,3.5-1.3,5-2.7v-6Zm7.4,8.4c-1.3,1.2-2.7,2.5-4.5,2.5s-2.7-1.7-2.8-3.4c-2.2,2-4.2,3.4-7,3.4s-4.9-2-4.9-4.4,2.1-4.3,11.9-7.7v-3c0-2.6-1.5-3.9-4.4-3.9a3.2,3.2,0,0,0-3.5,3.2c0,1.3-1.5,1.9-2.6,1.9a0.8,0.8,0,0,1-.8-0.9c0-2.4,2.1-3.6,5.3-5.2,1.6-.8,2.4-1.5,4.1-1.5s5.6,1.3,5.6,3.8V99c0,1.9.6,2.6,1.6,2.6a2.3,2.3,0,0,0,1.7-.8Z" style="fill: #fff"/>
  <path d="M412.5,88.5c0-1.7-.5-2.1-2.7-3V84.7a58.8,58.8,0,0,0,6-2.2c0.1,0,.3.1,0.3,0.5v3c2.6-1.9,4.8-3.4,7.9-3.4s5.3,2.8,5.3,6.4v11.8c0,1.5,1,1.5,2.3,1.5h0.8v1.2h-9.8v-1.2h0.8c1.3,0,2.2,0,2.2-1.5V88.8c0-2.6-1.6-3.9-4.2-3.9s-3.8,1.2-5.3,2.2v13.5c0,1.5,1,1.5,2.3,1.5h0.8v1.2h-9.8v-1.2h0.8c1.3,0,2.2,0,2.2-1.5V88.5Z" style="fill: #fff"/>
  <path d="M452.8,99.3c-2.2,2.6-5.3,4.8-8.9,4.8s-9.1-4.6-9.1-9.5c0-6.6,4.8-12.1,11.3-12.1,2.3,0,6.2.7,6.2,3.2a1.8,1.8,0,0,1-1.7,2c-1.9,0-1.8-3.7-6.1-3.7s-6,4.4-6,7.9,3,8.9,8,8.9a8.5,8.5,0,0,0,5.6-2.2Z" style="fill: #fff"/>
  <path d="M467.3,89.3a1,1,0,0,0,1.3-1.1,3.9,3.9,0,0,0-4-4.2c-2.8,0-4.7,2.1-5.3,5.3h8Zm-8.1,1.5a11.4,11.4,0,0,0,0,2.6c0.3,4.4,3.1,7.9,6.7,7.9s4.5-1.4,6.2-3.1l0.6,0.6c-2.1,2.8-4.7,5.2-8.5,5.2-7.3,0-8.7-7-8.7-10,0-9,6-11.6,9.2-11.6s7.7,2.3,7.7,7.2a4.4,4.4,0,0,1-.1.8l-0.4.3H459.2Z" style="fill: #fff"/>
  <path d="M494.5,97.7c0,3,1.6,3.8,2.9,3.8a4.5,4.5,0,0,0,3.2-1.3l0.7,0.7c-1.6,1.6-3.6,3.1-6.1,3.1s-4.3-1.6-4.3-4.2V85.6h-3V84.9a19.6,19.6,0,0,0,6.1-6.4h0.6v4.7h6.8v2.5h-6.8V97.7Z" style="fill: #fff"/>
  <path d="M514.2,102.9c4.6,0,6.4-5.3,6.4-9.2s-2-10-6.9-10-6.3,5.3-6.3,9.2,2,10,6.8,10m-0.5-20.4c6.4,0,11.1,4.2,11.1,10.7A10.7,10.7,0,0,1,514.3,104c-6.1,0-11.1-4.2-11.1-10.7s4.3-10.9,10.5-10.9" style="fill: #fff"/>
  <path d="M139.5,140.7H148c5.2,0,5.2-4.1,5.4-5.5h1.3c-0.1,1.4-.3,4.9-0.3,7.2s0.3,5.1.3,7.2h-1.3c0-6.2-2.1-6.2-7-6.2h-6.9v10.9c0,7.2.3,9,6.6,9h4c6.3-.3,9.2-1.2,11.7-8.1l1.5,0.3a86.5,86.5,0,0,0-2.6,9.9H127.1v-1.7c5.6,0,6.1-1,6.1-7.3V127.8c0-5.3-1-5.5-6.1-5.7v-1.7h31.6V130l-1.3.3c-1-6.1-3.9-7.9-10.3-7.9h-7.5v18.3Z" style="fill: #fff"/>
  <path d="M171.6,138.5c0-2.9-3.9-3-5.2-3v-1.7h8.8l19.7,23.1V140c0-4.4-1.7-4.5-5.2-4.5v-1.7h12.2v1.7c-3,0-4.4.1-4.4,3.4v27.3h-1.5l-21.8-25.4V158c0,4.6.6,5.7,5.5,5.7v1.7H166.3v-1.7c5.3,0,5.3-2.6,5.3-7.3V138.5Z" style="fill: #fff"/>
  <path d="M216.1,159.2c0,3.7,2.1,4.1,5.2,4.1,6.2,0,14.2-2,14.2-13.3,0-7.9-3.7-14.2-12.3-14.2l-7.1.2v23.2Zm-5.5-20.9c0-2.4-1.7-2.8-4.8-2.8v-1.7h17.5c13,0,18.5,8.1,18.5,15.5,0,12.2-9.4,16.1-18.8,16.1H205.7v-1.7c3,0,4.8-.4,4.8-2.8V138.3Z" style="fill: #fff"/>
  <path d="M297.7,140.7V126.7c0-4.5-2.5-4.6-5.9-4.6v-1.7h18v1.7c-3.4.1-5.9,0.1-5.9,4.6v32.4c0,4.5,2.5,4.6,5.9,4.6v1.7h-18v-1.7c3.4-.1,5.9-0.1,5.9-4.6V143.4h-26v15.7c0,4.5,2.5,4.6,5.9,4.6v1.7h-18v-1.7c3.4-.1,5.9-0.1,5.9-4.6V126.7c0-4.5-2.4-4.6-5.9-4.6v-1.7h18v1.7c-3.4.1-5.9,0.1-5.9,4.6v14.1h26Z" style="fill: #fff"/>
  <path d="M331.3,164.1c8.1,0,10.7-7.1,10.7-14.1,0-9-5.1-14.9-11.9-14.9s-10.8,6.8-10.8,13.7c0,8.6,5.3,15.3,12.1,15.3M331,133c10.4,0,17.3,7.1,17.3,16.4a17.2,17.2,0,0,1-17.7,16.8c-10.6,0-17.7-6.8-17.7-16.7S321.5,133,331,133" style="fill: #fff"/>
  <path d="M386,133.8h9.7v1.7c-3.1,0-4.4.6-4.4,2.1s0.1,1.9.1,3.6l0.6,16.8c0.2,5.5,1.1,5.8,5.2,5.8v1.7H382v-1.7c3.4,0,4.6-.4,4.6-3.2,0-4.8-.4-12.2-0.7-21.3h-0.1l-12.2,26.6h-0.9l-12.2-25.6h-0.1c-0.4,6.2-1.2,17.9-1.2,19.9s1.7,3.6,5,3.6v1.7H351.7v-1.7c4.3,0,4.8-1.5,5-4.3l1.2-16.8c0.2-2.5.3-3.7,0.3-5.3s-1-1.8-4.8-1.8v-1.7h9.7l11.7,23.7Z" style="fill: #fff"/>
  <path d="M428.3,165.4H402v-1.7c3,0,4.8-.4,4.8-2.8V138.3c0-2.4-1.7-2.8-4.8-2.8v-1.7h24.6l0.4,6.8h-1.4c-0.8-4.4-1.9-4.8-8.5-4.8h-4.8V148h5.4c3.2,0,4.6-.1,4.6-4.5h1.7c-0.1,1.7-.1,3.4-0.1,5.2s0.1,3.5.1,5.4h-1.7c0-3.6-.8-3.9-4.6-3.9h-5.4v9.4c0,2.8,1.5,3.8,6.9,3.8s7-.8,9.5-5.1h1.6Z" style="fill: #fff"/>
  <path d="M440.6,138.3c0-2.4-1.7-2.8-4.8-2.8v-1.7h15.1v1.7c-2.8,0-4.8.2-4.8,2.8v21.5c0,2.7.8,3.5,5.9,3.5s7.2-.9,9.5-6.1h1.6l-1.9,8.2H435.9v-1.7c3,0,4.8-.4,4.8-2.8V138.3Z" style="fill: #fff"/>
  <path d="M492.7,165.4H466.4v-1.7c3,0,4.8-.4,4.8-2.8V138.3c0-2.4-1.7-2.8-4.8-2.8v-1.7H491l0.4,6.8H490c-0.8-4.4-1.9-4.8-8.5-4.8h-4.8V148h5.4c3.2,0,4.6-.1,4.6-4.5h1.7c-0.1,1.7-.1,3.4-0.1,5.2s0.1,3.5.1,5.4h-1.7c0-3.6-.8-3.9-4.6-3.9h-5.4v9.4c0,2.8,1.5,3.8,6.9,3.8s7-.8,9.5-5.1h1.6Z" style="fill: #fff"/>
  <path d="M500.4,157.6h1.5c1.3,4.5,3.3,6.9,8,6.9s6.1-3.3,6.1-5.3-1.5-4.3-5.8-6.6c-7.1-3.7-9-6.1-9-11.2s3.8-8.4,9.4-8.4c2.4,0,5.5.6,7.6,0.6l0.6,6.3h-1.4c-0.7-2.6-2.1-5.3-6.4-5.3s-5.6,2.2-5.6,5.2,1,4.3,7.2,7.3,8.1,6.1,8.1,10.1-4.8,8.8-11.4,8.8a18.2,18.2,0,0,1-8-1.7Z" style="fill: #fff"/>
  <path d="M529,157.6h1.5c1.3,4.5,3.3,6.9,8,6.9s6.1-3.3,6.1-5.3-1.5-4.3-5.8-6.6c-7.1-3.7-9-6.1-9-11.2s3.8-8.4,9.4-8.4c2.5,0,5.5.6,7.6,0.6l0.6,6.3h-1.4c-0.7-2.6-2.1-5.3-6.4-5.3s-5.6,2.2-5.6,5.2,1,4.3,7.2,7.3,8.1,6.1,8.1,10.1-4.8,8.8-11.4,8.8a18.2,18.2,0,0,1-8-1.7Z" style="fill: #fff"/>
  <path d="M560.7,138.5c0-2.9-3.9-3-5.2-3v-1.7h8.8L584,156.9V140c0-4.4-1.7-4.5-5.2-4.5v-1.7H591v1.7c-3,0-4.4.1-4.4,3.4v27.3H585l-21.8-25.4V158c0,4.6.6,5.7,5.5,5.7v1.7H555.4v-1.7c5.3,0,5.3-2.6,5.3-7.3V138.5Z" style="fill: #fff"/>
  <path d="M621.6,165.4H595.3v-1.7c3,0,4.8-.4,4.8-2.8V138.3c0-2.4-1.7-2.8-4.8-2.8v-1.7h24.6l0.4,6.8h-1.4c-0.8-4.4-1.9-4.8-8.5-4.8h-4.8V148h5.3c3.2,0,4.6-.1,4.6-4.5h1.7c-0.1,1.7-.1,3.4-0.1,5.2s0.1,3.5.1,5.4h-1.7c0-3.6-.8-3.9-4.6-3.9h-5.3v9.4c0,2.8,1.5,3.8,6.9,3.8s7-.8,9.5-5.1h1.6Z" style="fill: #fff"/>
  <path d="M629.2,157.6h1.5c1.3,4.5,3.3,6.9,8,6.9s6.1-3.3,6.1-5.3-1.5-4.3-5.8-6.6c-7.1-3.7-9-6.1-9-11.2s3.8-8.4,9.4-8.4c2.5,0,5.5.6,7.6,0.6l0.6,6.3h-1.4c-0.7-2.6-2.1-5.3-6.4-5.3s-5.6,2.2-5.6,5.2,1,4.3,7.2,7.3,8.1,6.1,8.1,10.1-4.8,8.8-11.4,8.8a18.2,18.2,0,0,1-8-1.7Z" style="fill: #fff"/>
  <path d="M657.9,157.6h1.5c1.3,4.5,3.3,6.9,8,6.9s6.1-3.3,6.1-5.3-1.5-4.3-5.8-6.6c-7.1-3.7-9-6.1-9-11.2s3.8-8.4,9.4-8.4c2.5,0,5.5.6,7.6,0.6l0.6,6.3h-1.3c-0.7-2.6-2.1-5.3-6.4-5.3s-5.6,2.2-5.6,5.2,1,4.3,7.2,7.3,8.1,6.1,8.1,10.1-4.8,8.8-11.4,8.8a18.2,18.2,0,0,1-8-1.7Z" style="fill: #fff"/>
</svg>
